<svg width="84" height="84" viewBox="0 0 84 84" fill="none" xmlns="http://www.w3.org/2000/svg">
<path d="M46.1666 29.5H37.8333V21.1667H46.1666M46.1666 62.8333H37.8333V37.8333H46.1666M42 0.333344C36.5282 0.333344 31.1101 1.41108 26.0548 3.50503C20.9996 5.59898 16.4063 8.66812 12.5372 12.5372C4.72318 20.3512 0.333313 30.9493 0.333313 42C0.333313 53.0507 4.72318 63.6488 12.5372 71.4628C16.4063 75.3319 20.9996 78.401 26.0548 80.495C31.1101 82.5889 36.5282 83.6667 42 83.6667C53.0507 83.6667 63.6487 79.2768 71.4628 71.4628C79.2768 63.6488 83.6666 53.0507 83.6666 42C83.6666 36.5283 82.5889 31.1101 80.495 26.0549C78.401 20.9996 75.3319 16.4063 71.4628 12.5372C67.5937 8.66812 63.0004 5.59898 57.9451 3.50503C52.8899 1.41108 47.4717 0.333344 42 0.333344Z" fill="#FC8C5D"/>
</svg>
