<svg width="100" height="100" viewBox="0 0 100 100" fill="none" xmlns="http://www.w3.org/2000/svg">
<path fill-rule="evenodd" clip-rule="evenodd" d="M50 10.4167C35.0423 10.4167 22.9167 22.5423 22.9167 37.5C22.9167 52.4577 35.0423 64.5833 50 64.5833C64.9577 64.5833 77.0833 52.4577 77.0833 37.5C77.0833 22.5423 64.9577 10.4167 50 10.4167ZM18.75 37.5C18.75 20.2411 32.7411 6.25 50 6.25C67.2589 6.25 81.25 20.2411 81.25 37.5C81.25 54.7589 67.2589 68.75 50 68.75C32.7411 68.75 18.75 54.7589 18.75 37.5Z" fill="#FA4F06"/>
<path fill-rule="evenodd" clip-rule="evenodd" d="M50 18.75C50.9025 18.75 51.7024 19.3312 51.9813 20.1895L55.2555 30.2664H65.8509C66.7535 30.2664 67.5534 30.8475 67.8323 31.7059C68.1112 32.5643 67.8056 33.5047 67.0755 34.0352L58.5036 40.263L61.7778 50.3398C62.0567 51.1982 61.7511 52.1386 61.0209 52.6691C60.2908 53.1996 59.302 53.1996 58.5718 52.6691L50 46.4412L41.4281 52.6691C40.6979 53.1996 39.7092 53.1996 38.979 52.6691C38.2488 52.1386 37.9433 51.1982 38.2222 50.3398L41.4963 40.263L32.9245 34.0352C32.1943 33.5047 31.8888 32.5643 32.1677 31.7059C32.4466 30.8475 33.2465 30.2664 34.149 30.2664H44.7444L48.0186 20.1895C48.2975 19.3312 49.0974 18.75 50 18.75ZM50 27.5751L48.2394 32.9935C47.9605 33.8519 47.1606 34.433 46.2581 34.433H40.5609L45.17 37.7818C45.9002 38.3123 46.2057 39.2526 45.9268 40.111L44.1663 45.5294L48.7754 42.1806C49.5056 41.6501 50.4943 41.6501 51.2245 42.1806L55.8337 45.5294L54.0731 40.111C53.7942 39.2526 54.0998 38.3123 54.8299 37.7818L59.4391 34.433H53.7419C52.8393 34.433 52.0394 33.8519 51.7605 32.9935L50 27.5751Z" fill="#FA4F06"/>
<path fill-rule="evenodd" clip-rule="evenodd" d="M29.1667 56.25C30.3173 56.25 31.25 57.1827 31.25 58.3333V85.5124C31.25 86.9862 32.7386 87.9941 34.1071 87.4467L47.6788 82.018C49.1689 81.422 50.8312 81.422 52.3212 82.018L65.893 87.4467C67.2614 87.9941 68.75 86.9862 68.75 85.5124V58.3333C68.75 57.1827 69.6828 56.25 70.8334 56.25C71.984 56.25 72.9167 57.1827 72.9167 58.3333V85.5124C72.9167 89.934 68.4509 92.9575 64.3455 91.3153L50.7738 85.8866C50.2771 85.688 49.723 85.688 49.2263 85.8866L35.6546 91.3153C31.5492 92.9575 27.0834 89.934 27.0834 85.5124V58.3333C27.0834 57.1827 28.0161 56.25 29.1667 56.25Z" fill="#FA4F06"/>
</svg>
