<svg width="84" height="84" viewBox="0 0 84 84" fill="none" xmlns="http://www.w3.org/2000/svg">
<path d="M41.9999 0.333344C43.0205 0.333478 44.0055 0.708161 44.7682 1.38632C45.5308 2.06449 46.018 2.99896 46.1374 4.01251L46.1666 4.50001V4.72918C54.4265 5.65522 62.1451 9.29766 68.111 15.0848C74.0769 20.872 77.9523 28.4763 79.1291 36.7042L79.2708 37.8333H79.4999C80.5619 37.8345 81.5834 38.2412 82.3556 38.9702C83.1279 39.6992 83.5926 40.6956 83.6548 41.7558C83.7171 42.816 83.3721 43.8599 82.6905 44.6743C82.0089 45.4887 81.042 46.0121 79.9874 46.1375L79.4999 46.1667H79.2708C78.3447 54.4266 74.7023 62.1452 68.9151 68.1111C63.128 74.077 55.5237 77.9524 47.2958 79.1292L46.1666 79.2708V79.5C46.1654 80.562 45.7588 81.5835 45.0297 82.3557C44.3007 83.1279 43.3043 83.5927 42.2441 83.6549C41.184 83.7171 40.14 83.3722 39.3256 82.6906C38.5112 82.0089 37.9879 81.0421 37.8624 79.9875L37.8333 79.5V79.2708C29.5734 78.3448 21.8548 74.7024 15.8889 68.9152C9.923 63.128 6.04754 55.5237 4.87077 47.2958L4.72911 46.1667H4.49994C3.43794 46.1655 2.41647 45.7588 1.64424 45.0298C0.872006 44.3008 0.407295 43.3044 0.345057 42.2442C0.282819 41.184 0.627752 40.1401 1.30938 39.3257C1.991 38.5113 2.95788 37.9879 4.01244 37.8625L4.49994 37.8333H4.72911C5.65515 29.5735 9.29759 21.8549 15.0848 15.889C20.8719 9.92307 28.4762 6.04761 36.7041 4.87084L37.8333 4.72918V4.50001C37.8333 3.39494 38.2723 2.33513 39.0537 1.55373C39.8351 0.77233 40.8949 0.333344 41.9999 0.333344ZM41.9999 21.1667C36.4746 21.1667 31.1756 23.3616 27.2685 27.2686C23.3615 31.1756 21.1666 36.4747 21.1666 42C21.1666 47.5254 23.3615 52.8244 27.2685 56.7314C31.1756 60.6384 36.4746 62.8333 41.9999 62.8333C47.5253 62.8333 52.8243 60.6384 56.7313 56.7314C60.6383 52.8244 62.8333 47.5254 62.8333 42C62.8333 36.4747 60.6383 31.1756 56.7313 27.2686C52.8243 23.3616 47.5253 21.1667 41.9999 21.1667ZM41.9999 29.5C45.3151 29.5 48.4946 30.817 50.8388 33.1612C53.183 35.5054 54.4999 38.6848 54.4999 42C54.4999 45.3152 53.183 48.4946 50.8388 50.8388C48.4946 53.183 45.3151 54.5 41.9999 54.5C38.6847 54.5 35.5053 53.183 33.1611 50.8388C30.8169 48.4946 29.4999 45.3152 29.4999 42C29.4999 38.6848 30.8169 35.5054 33.1611 33.1612C35.5053 30.817 38.6847 29.5 41.9999 29.5Z" fill="#FC8C5D"/>
</svg>
