<svg width="100" height="100" viewBox="0 0 100 100" fill="none" xmlns="http://www.w3.org/2000/svg">
<path fill-rule="evenodd" clip-rule="evenodd" d="M81.25 8.33333C81.25 7.18274 80.3173 6.25 79.1667 6.25H29.1667C23.4137 6.25 18.75 10.9137 18.75 16.6667V83.3333C18.75 89.0863 23.4137 93.75 29.1667 93.75H79.1667C80.3173 93.75 81.25 92.8173 81.25 91.6667V8.33333ZM77.0833 10.4167V89.5833H29.1667C25.7149 89.5833 22.9167 86.7851 22.9167 83.3333V16.6667C22.9167 13.2149 25.7149 10.4167 29.1667 10.4167H77.0833Z" fill="#FA4F06"/>
<path fill-rule="evenodd" clip-rule="evenodd" d="M81.25 75C81.25 73.8494 80.3173 72.9167 79.1667 72.9167H29.1667C23.4137 72.9167 18.75 77.5804 18.75 83.3334C18.75 89.0863 23.4137 93.75 29.1667 93.75H79.1667C80.3173 93.75 81.25 92.8173 81.25 91.6667V75ZM77.0833 77.0834V89.5834H29.1667C25.7149 89.5834 22.9167 86.7851 22.9167 83.3334C22.9167 79.8816 25.7149 77.0834 29.1667 77.0834H77.0833Z" fill="#FA4F06"/>
<path fill-rule="evenodd" clip-rule="evenodd" d="M68.75 20.8333C68.75 19.6827 67.8173 18.75 66.6667 18.75H33.3333C32.1827 18.75 31.25 19.6827 31.25 20.8333V37.5C31.25 38.6506 32.1827 39.5833 33.3333 39.5833H66.6667C67.8173 39.5833 68.75 38.6506 68.75 37.5V20.8333ZM64.5833 22.9167V35.4167H35.4167V22.9167H64.5833Z" fill="#FA4F06"/>
</svg>
