<svg width="201" height="192" viewBox="0 0 201 192" fill="none" xmlns="http://www.w3.org/2000/svg">
<path d="M192.2 69.2C192.2 71.5 191.3 73.8 189.6 75.6L87.5 178.9C84 182.4 78.3 182.4 74.8 178.9C73 177.1 72.2 174.8 72.2 172.5C72.2 170.3 73 168.2 74.5 166.5C74.6 166.4 74.7 166.3 74.8 166.2L80 160.9C81.8 159.1 82.6 156.8 82.6 154.5C82.6 152.2 81.7 149.9 80 148.1C76.6 144.7 71.1 144.6 67.6 147.8C67.5 147.9 67.4 148 67.3 148.1L60.1 155.3L40.7 174.6C37.2 178.1 31.5 178.1 28 174.6C26.2 172.8 25.4 170.5 25.4 168.2C25.4 166 26.2 163.9 27.7 162.2C27.8 162.1 27.9 162 28 161.9L45.5 144.4C47.3 142.6 48.1 140.3 48.1 138C48.1 135.7 47.2 133.4 45.5 131.6C42.1 128.2 36.6 128.1 33.1 131.3C33 131.4 32.9 131.5 32.8 131.6L15.3 149.1C11.8 152.6 6.1 152.6 2.6 149.1C0.8 147.3 0 145 0 142.7C0 140.4 0.9 138.1 2.6 136.3L134.1 5C137.6 1.5 143.3 1.5 146.8 5C148.6 6.8 149.4 9.1 149.4 11.4C149.4 13.7 148.5 16 146.8 17.8L131.3 33.3C131.2 33.4 131.1 33.5 131 33.6C129.5 35.3 128.7 37.5 128.7 39.6C128.7 41.9 129.6 44.2 131.3 46C134.8 49.5 140.5 49.5 144 46L159.5 30.5C159.6 30.4 159.7 30.3 159.8 30.2C163.3 27 168.8 27.1 172.2 30.5C174 32.3 174.8 34.6 174.8 36.9C174.8 39.2 173.9 41.5 172.2 43.3L159.2 56.3C159.1 56.4 159 56.5 158.9 56.6C157.4 58.3 156.6 60.5 156.6 62.6C156.6 64.9 157.5 67.2 159.2 69C162.7 72.5 168.4 72.5 171.9 69L176.7 62.9C176.8 62.8 176.9 62.7 177 62.6C180.5 59.4 186 59.5 189.4 62.9C191.3 64.6 192.2 66.9 192.2 69.2Z" fill="#FAF6F2"/>
<path d="M67.7 136.9L60.2 144.4L67.4 137.2C67.4 137.1 67.5 137 67.7 136.9Z" fill="#F1F1F1"/>
<path d="M67.7 136.9L60.2 144.4L67.4 137.2C67.4 137.1 67.5 137 67.7 136.9Z" fill="#F1F1F1"/>
<path d="M186.1 112C186.1 114.3 185.2 116.6 183.5 118.4L124 176.9C120.5 180.4 114.8 180.4 111.3 176.9C109.5 175.1 108.7 172.8 108.7 170.5C108.7 168.2 109.6 165.9 111.3 164.1L170.8 105.6C174.3 102.1 180 102.1 183.5 105.6C185.3 107.4 186.1 109.7 186.1 112Z" fill="#FAF6F2"/>
<path d="M68.4001 52.025C68.4001 54.325 67.5001 56.625 65.8001 58.425L27.3001 95.925C23.8001 99.425 18.1001 99.425 14.6001 95.925C12.8001 94.125 12.0001 91.825 12.0001 89.525C12.0001 87.225 12.9001 84.925 14.6001 83.125L53.1001 45.625C56.6001 42.125 62.3001 42.125 65.8001 45.625C67.6001 47.425 68.4001 49.725 68.4001 52.025Z" fill="#FAF6F2"/>
</svg>
