<svg width="84" height="84" viewBox="0 0 84 84" fill="none" xmlns="http://www.w3.org/2000/svg">
<path d="M51.5417 66.125C52.375 66.125 53.1042 65.8125 53.7292 65.1875C54.3542 64.5625 54.6667 63.8333 54.6667 63C54.6667 62.1667 54.3542 61.4375 53.7292 60.8125C53.1042 60.1875 52.375 59.875 51.5417 59.875C50.7083 59.875 49.9792 60.1875 49.3542 60.8125C48.7292 61.4375 48.4167 62.1667 48.4167 63C48.4167 63.8333 48.7292 64.5625 49.3542 65.1875C49.9792 65.8125 50.7083 66.125 51.5417 66.125ZM63 66.125C63.8333 66.125 64.5625 65.8125 65.1875 65.1875C65.8125 64.5625 66.125 63.8333 66.125 63C66.125 62.1667 65.8125 61.4375 65.1875 60.8125C64.5625 60.1875 63.8333 59.875 63 59.875C62.1667 59.875 61.4375 60.1875 60.8125 60.8125C60.1875 61.4375 59.875 62.1667 59.875 63C59.875 63.8333 60.1875 64.5625 60.8125 65.1875C61.4375 65.8125 62.1667 66.125 63 66.125ZM74.4583 66.125C75.2917 66.125 76.0208 65.8125 76.6458 65.1875C77.2708 64.5625 77.5833 63.8333 77.5833 63C77.5833 62.1667 77.2708 61.4375 76.6458 60.8125C76.0208 60.1875 75.2917 59.875 74.4583 59.875C73.625 59.875 72.8959 60.1875 72.2709 60.8125C71.6459 61.4375 71.3333 62.1667 71.3333 63C71.3333 63.8333 71.6459 64.5625 72.2709 65.1875C72.8959 65.8125 73.625 66.125 74.4583 66.125ZM63 83.8334C57.2361 83.8334 52.3222 81.8014 48.2583 77.7375C44.1945 73.6736 42.1639 68.7611 42.1667 63C42.1667 57.2361 44.1986 52.3222 48.2625 48.2583C52.3264 44.1945 57.2389 42.1639 63 42.1667C68.7639 42.1667 73.6778 44.1986 77.7417 48.2625C81.8056 52.3264 83.8361 57.2389 83.8334 63C83.8334 68.7639 81.8014 73.6778 77.7375 77.7417C73.6736 81.8056 68.7611 83.8361 63 83.8334ZM17.1667 25.5H58.8333V17.1667H17.1667V25.5ZM36.6458 75.5H8.83334C6.54167 75.5 4.57917 74.6833 2.94584 73.05C1.31251 71.4167 0.497229 69.4556 0.500007 67.1667V8.83334C0.500007 6.54167 1.31667 4.57917 2.95001 2.94584C4.58334 1.31251 6.54445 0.497229 8.83334 0.500007H67.1667C69.4583 0.500007 71.4208 1.31667 73.0542 2.95001C74.6875 4.58334 75.5028 6.54445 75.5 8.83334V36.75C73.4861 35.7778 71.4542 35.0486 69.4042 34.5625C67.3542 34.0764 65.2195 33.8333 63 33.8333C62.2361 33.8333 61.5236 33.85 60.8625 33.8833C60.2014 33.9167 59.525 34.0042 58.8333 34.1458V33.8333H17.1667V42.1667H42.6875C41.4375 43.3472 40.3083 44.632 39.3 46.0208C38.2917 47.4097 37.407 48.9028 36.6458 50.5H17.1667V58.8333H34.1458C34.007 59.5278 33.9195 60.2056 33.8833 60.8667C33.8472 61.5278 33.8306 62.2389 33.8333 63C33.8333 65.2917 34.0417 67.4278 34.4583 69.4083C34.875 71.3889 35.6042 73.4195 36.6458 75.5Z" fill="#FC8C5D"/>
</svg>
