<svg width="100" height="100" viewBox="0 0 100 100" fill="none" xmlns="http://www.w3.org/2000/svg">
<path fill-rule="evenodd" clip-rule="evenodd" d="M6.25 8.33333C6.25 7.18274 7.18274 6.25 8.33333 6.25H79.1667C80.3173 6.25 81.25 7.18274 81.25 8.33333V91.6667C81.25 92.8173 80.3173 93.75 79.1667 93.75H20.8333C12.7792 93.75 6.25 87.2208 6.25 79.1667V8.33333ZM10.4167 10.4167V79.1667C10.4167 84.9196 15.0804 89.5833 20.8333 89.5833H77.0833V10.4167H10.4167Z" fill="#FA4F06"/>
<path fill-rule="evenodd" clip-rule="evenodd" d="M77.0833 25C77.0833 23.8494 78.0161 22.9167 79.1666 22.9167H91.6666C92.8172 22.9167 93.75 23.8494 93.75 25V79.1667C93.75 87.2208 87.2208 93.75 79.1666 93.75V91.6667H77.0833V25ZM81.25 89.375C86.0046 88.4098 89.5833 84.2062 89.5833 79.1667V27.0834H81.25V89.375Z" fill="#FA4F06"/>
<path fill-rule="evenodd" clip-rule="evenodd" d="M18.75 54.1666C18.75 53.0161 19.6827 52.0833 20.8333 52.0833H41.6667C42.8173 52.0833 43.75 53.0161 43.75 54.1666V75C43.75 76.1506 42.8173 77.0833 41.6667 77.0833H20.8333C19.6827 77.0833 18.75 76.1506 18.75 75V54.1666ZM22.9167 56.25V72.9167H39.5833V56.25H22.9167Z" fill="#FA4F06"/>
<path fill-rule="evenodd" clip-rule="evenodd" d="M18.75 20.8333C18.75 19.6827 19.6827 18.75 20.8333 18.75H66.6667C67.8173 18.75 68.75 19.6827 68.75 20.8333V41.6667C68.75 42.8173 67.8173 43.75 66.6667 43.75H20.8333C19.6827 43.75 18.75 42.8173 18.75 41.6667V20.8333ZM22.9167 22.9167V39.5833H64.5833V22.9167H22.9167Z" fill="#FA4F06"/>
<path fill-rule="evenodd" clip-rule="evenodd" d="M66.6667 56.25H54.1667V52.0833H66.6667V56.25Z" fill="#FA4F06"/>
<path fill-rule="evenodd" clip-rule="evenodd" d="M66.6667 68.75H54.1667V64.5833H66.6667V68.75Z" fill="#FA4F06"/>
</svg>
