<svg width="201" height="192" viewBox="0 0 201 192" fill="none" xmlns="http://www.w3.org/2000/svg">
<path d="M192.2 69.2C192.2 71.5 191.3 73.8 189.6 75.6L87.5 178.9C84 182.4 78.3 182.4 74.8 178.9C73 177.1 72.2 174.8 72.2 172.5C72.2 170.3 73 168.2 74.5 166.5C74.6 166.4 74.7 166.3 74.8 166.2L80 160.9C81.8 159.1 82.6 156.8 82.6 154.5C82.6 152.2 81.7 149.9 80 148.1C76.6 144.7 71.1 144.6 67.6 147.8C67.5 147.9 67.4 148 67.3 148.1L60.1 155.3L40.7 174.6C37.2 178.1 31.5 178.1 28 174.6C26.2 172.8 25.4 170.5 25.4 168.2C25.4 166 26.2 163.9 27.7 162.2C27.8 162.1 27.9 162 28 161.9L45.5 144.4C47.3 142.6 48.1 140.3 48.1 138C48.1 135.7 47.2 133.4 45.5 131.6C42.1 128.2 36.6 128.1 33.1 131.3C33 131.4 32.9 131.5 32.8 131.6L15.3 149.1C11.8 152.6 6.1 152.6 2.6 149.1C0.8 147.3 0 145 0 142.7C0 140.4 0.9 138.1 2.6 136.3L134.1 5C137.6 1.5 143.3 1.5 146.8 5C148.6 6.8 149.4 9.1 149.4 11.4C149.4 13.7 148.5 16 146.8 17.8L131.3 33.3C131.2 33.4 131.1 33.5 131 33.6C129.5 35.3 128.7 37.5 128.7 39.6C128.7 41.9 129.6 44.2 131.3 46C134.8 49.5 140.5 49.5 144 46L159.5 30.5C159.6 30.4 159.7 30.3 159.8 30.2C163.3 27 168.8 27.1 172.2 30.5C174 32.3 174.8 34.6 174.8 36.9C174.8 39.2 173.9 41.5 172.2 43.3L159.2 56.3C159.1 56.4 159 56.5 158.9 56.6C157.4 58.3 156.6 60.5 156.6 62.6C156.6 64.9 157.5 67.2 159.2 69C162.7 72.5 168.4 72.5 171.9 69L176.7 62.9C176.8 62.8 176.9 62.7 177 62.6C180.5 59.4 186 59.5 189.4 62.9C191.3 64.6 192.2 66.9 192.2 69.2Z" fill="#FAF6F2"/>
<path d="M67.6999 136.9L60.2 144.4L67.4 137.2C67.4 137.1 67.4999 137 67.6999 136.9Z" fill="#F1F1F1"/>
<path d="M67.6999 136.9L60.2 144.4L67.4 137.2C67.4 137.1 67.4999 137 67.6999 136.9Z" fill="#F1F1F1"/>
<path d="M186.1 112C186.1 114.3 185.2 116.6 183.5 118.4L124 176.9C120.5 180.4 114.8 180.4 111.3 176.9C109.5 175.1 108.7 172.8 108.7 170.5C108.7 168.2 109.6 165.9 111.3 164.1L170.8 105.6C174.3 102.1 180 102.1 183.5 105.6C185.3 107.4 186.1 109.7 186.1 112Z" fill="#FAF6F2"/>
<path d="M68.4 52.025C68.4 54.325 67.5 56.625 65.8 58.425L27.3 95.925C23.8 99.425 18.1 99.425 14.6 95.925C12.8 94.125 12 91.825 12 89.525C12 87.225 12.9 84.925 14.6 83.125L53.1 45.625C56.6 42.125 62.3 42.125 65.8 45.625C67.6 47.425 68.4 49.725 68.4 52.025Z" fill="#FAF6F2"/>
<path d="M102 56.3333C103.02 56.3335 104.006 56.7082 104.768 57.3863C105.531 58.0645 106.018 58.999 106.137 60.0125L106.167 60.5V60.7292C114.426 61.6552 122.145 65.2977 128.111 71.0848C134.077 76.872 137.952 84.4763 139.129 92.7042L139.271 93.8333H139.5C140.562 93.8345 141.583 94.2412 142.356 94.9702C143.128 95.6992 143.593 96.6956 143.655 97.7558C143.717 98.816 143.372 99.8599 142.691 100.674C142.009 101.489 141.042 102.012 139.987 102.138L139.5 102.167H139.271C138.345 110.427 134.702 118.145 128.915 124.111C123.128 130.077 115.524 133.952 107.296 135.129L106.167 135.271V135.5C106.165 136.562 105.759 137.583 105.03 138.356C104.301 139.128 103.304 139.593 102.244 139.655C101.184 139.717 100.14 139.372 99.3256 138.691C98.5112 138.009 97.9879 137.042 97.8624 135.988L97.8333 135.5V135.271C89.5734 134.345 81.8548 130.702 75.8889 124.915C69.923 119.128 66.0475 111.524 64.8708 103.296L64.7291 102.167H64.4999C63.4379 102.165 62.4165 101.759 61.6442 101.03C60.872 100.301 60.4073 99.3044 60.3451 98.2442C60.2828 97.184 60.6278 96.1401 61.3094 95.3257C61.991 94.5113 62.9579 93.9879 64.0124 93.8625L64.4999 93.8333H64.7291C65.6551 85.5735 69.2976 77.8549 75.0848 71.889C80.8719 65.9231 88.4762 62.0476 96.7041 60.8708L97.8333 60.7292V60.5C97.8333 59.3949 98.2723 58.3351 99.0537 57.5537C99.8351 56.7723 100.895 56.3333 102 56.3333ZM102 77.1667C96.4746 77.1667 91.1756 79.3616 87.2685 83.2686C83.3615 87.1756 81.1666 92.4747 81.1666 98C81.1666 103.525 83.3615 108.824 87.2685 112.731C91.1756 116.638 96.4746 118.833 102 118.833C107.525 118.833 112.824 116.638 116.731 112.731C120.638 108.824 122.833 103.525 122.833 98C122.833 92.4747 120.638 87.1756 116.731 83.2686C112.824 79.3616 107.525 77.1667 102 77.1667ZM102 85.5C105.315 85.5 108.495 86.817 110.839 89.1612C113.183 91.5054 114.5 94.6848 114.5 98C114.5 101.315 113.183 104.495 110.839 106.839C108.495 109.183 105.315 110.5 102 110.5C98.6847 110.5 95.5053 109.183 93.1611 106.839C90.8169 104.495 89.4999 101.315 89.4999 98C89.4999 94.6848 90.8169 91.5054 93.1611 89.1612C95.5053 86.817 98.6847 85.5 102 85.5Z" fill="#FC8C5D"/>
</svg>
