<svg width="201" height="192" viewBox="0 0 201 192" fill="none" xmlns="http://www.w3.org/2000/svg">
<path d="M192.2 69.2C192.2 71.5 191.3 73.8 189.6 75.6L87.5 178.9C84 182.4 78.3 182.4 74.8 178.9C73 177.1 72.2 174.8 72.2 172.5C72.2 170.3 73 168.2 74.5 166.5C74.6 166.4 74.7 166.3 74.8 166.2L80 160.9C81.8 159.1 82.6 156.8 82.6 154.5C82.6 152.2 81.7 149.9 80 148.1C76.6 144.7 71.1 144.6 67.6 147.8C67.5 147.9 67.4 148 67.3 148.1L60.1 155.3L40.7 174.6C37.2 178.1 31.5 178.1 28 174.6C26.2 172.8 25.4 170.5 25.4 168.2C25.4 166 26.2 163.9 27.7 162.2C27.8 162.1 27.9 162 28 161.9L45.5 144.4C47.3 142.6 48.1 140.3 48.1 138C48.1 135.7 47.2 133.4 45.5 131.6C42.1 128.2 36.6 128.1 33.1 131.3C33 131.4 32.9 131.5 32.8 131.6L15.3 149.1C11.8 152.6 6.1 152.6 2.6 149.1C0.8 147.3 0 145 0 142.7C0 140.4 0.9 138.1 2.6 136.3L134.1 5C137.6 1.5 143.3 1.5 146.8 5C148.6 6.8 149.4 9.1 149.4 11.4C149.4 13.7 148.5 16 146.8 17.8L131.3 33.3C131.2 33.4 131.1 33.5 131 33.6C129.5 35.3 128.7 37.5 128.7 39.6C128.7 41.9 129.6 44.2 131.3 46C134.8 49.5 140.5 49.5 144 46L159.5 30.5C159.6 30.4 159.7 30.3 159.8 30.2C163.3 27 168.8 27.1 172.2 30.5C174 32.3 174.8 34.6 174.8 36.9C174.8 39.2 173.9 41.5 172.2 43.3L159.2 56.3C159.1 56.4 159 56.5 158.9 56.6C157.4 58.3 156.6 60.5 156.6 62.6C156.6 64.9 157.5 67.2 159.2 69C162.7 72.5 168.4 72.5 171.9 69L176.7 62.9C176.8 62.8 176.9 62.7 177 62.6C180.5 59.4 186 59.5 189.4 62.9C191.3 64.6 192.2 66.9 192.2 69.2Z" fill="#FAF6F2"/>
<path d="M67.6999 136.9L60.2 144.4L67.4 137.2C67.4 137.1 67.4999 137 67.6999 136.9Z" fill="#F1F1F1"/>
<path d="M67.6999 136.9L60.2 144.4L67.4 137.2C67.4 137.1 67.4999 137 67.6999 136.9Z" fill="#F1F1F1"/>
<path d="M186.1 112C186.1 114.3 185.2 116.6 183.5 118.4L124 176.9C120.5 180.4 114.8 180.4 111.3 176.9C109.5 175.1 108.7 172.8 108.7 170.5C108.7 168.2 109.6 165.9 111.3 164.1L170.8 105.6C174.3 102.1 180 102.1 183.5 105.6C185.3 107.4 186.1 109.7 186.1 112Z" fill="#FAF6F2"/>
<path d="M68.4 52.025C68.4 54.325 67.5 56.625 65.8 58.425L27.3 95.925C23.8 99.425 18.1 99.425 14.6 95.925C12.8 94.125 12 91.825 12 89.525C12 87.225 12.9 84.925 14.6 83.125L53.1 45.625C56.6 42.125 62.3 42.125 65.8 45.625C67.6 47.425 68.4 49.725 68.4 52.025Z" fill="#FAF6F2"/>
<path d="M115.542 126.125C116.375 126.125 117.104 125.813 117.729 125.188C118.354 124.563 118.667 123.833 118.667 123C118.667 122.167 118.354 121.438 117.729 120.813C117.104 120.188 116.375 119.875 115.542 119.875C114.708 119.875 113.979 120.188 113.354 120.813C112.729 121.438 112.417 122.167 112.417 123C112.417 123.833 112.729 124.563 113.354 125.188C113.979 125.813 114.708 126.125 115.542 126.125ZM127 126.125C127.833 126.125 128.563 125.813 129.188 125.188C129.813 124.563 130.125 123.833 130.125 123C130.125 122.167 129.813 121.438 129.188 120.813C128.563 120.188 127.833 119.875 127 119.875C126.167 119.875 125.438 120.188 124.813 120.813C124.188 121.438 123.875 122.167 123.875 123C123.875 123.833 124.188 124.563 124.813 125.188C125.438 125.813 126.167 126.125 127 126.125ZM138.458 126.125C139.292 126.125 140.021 125.813 140.646 125.188C141.271 124.563 141.583 123.833 141.583 123C141.583 122.167 141.271 121.438 140.646 120.813C140.021 120.188 139.292 119.875 138.458 119.875C137.625 119.875 136.896 120.188 136.271 120.813C135.646 121.438 135.333 122.167 135.333 123C135.333 123.833 135.646 124.563 136.271 125.188C136.896 125.813 137.625 126.125 138.458 126.125ZM127 143.833C121.236 143.833 116.322 141.801 112.258 137.738C108.194 133.674 106.164 128.761 106.167 123C106.167 117.236 108.199 112.322 112.263 108.258C116.326 104.194 121.239 102.164 127 102.167C132.764 102.167 137.678 104.199 141.742 108.263C145.806 112.326 147.836 117.239 147.833 123C147.833 128.764 145.801 133.678 141.738 137.742C137.674 141.806 132.761 143.836 127 143.833ZM81.1667 85.5H122.833V77.1667H81.1667V85.5ZM100.646 135.5H72.8333C70.5417 135.5 68.5792 134.683 66.9458 133.05C65.3125 131.417 64.4972 129.456 64.5 127.167V68.8333C64.5 66.5417 65.3167 64.5792 66.95 62.9458C68.5833 61.3125 70.5445 60.4972 72.8333 60.5H131.167C133.458 60.5 135.421 61.3167 137.054 62.95C138.688 64.5833 139.503 66.5445 139.5 68.8333V96.75C137.486 95.7778 135.454 95.0486 133.404 94.5625C131.354 94.0764 129.219 93.8333 127 93.8333C126.236 93.8333 125.524 93.85 124.863 93.8833C124.201 93.9167 123.525 94.0042 122.833 94.1458V93.8333H81.1667V102.167H106.688C105.438 103.347 104.308 104.632 103.3 106.021C102.292 107.41 101.407 108.903 100.646 110.5H81.1667V118.833H98.1458C98.007 119.528 97.9195 120.206 97.8833 120.867C97.8472 121.528 97.8306 122.239 97.8333 123C97.8333 125.292 98.0417 127.428 98.4583 129.408C98.875 131.389 99.6042 133.419 100.646 135.5Z" fill="#FC8C5D"/>
</svg>
