<svg width="201" height="141" viewBox="0 0 201 141" fill="none" xmlns="http://www.w3.org/2000/svg">
<path d="M192.2 18.2C192.2 20.5 191.3 22.8 189.6 24.6L87.5 127.9C84 131.4 78.3 131.4 74.8 127.9C73 126.1 72.2 123.8 72.2 121.5C72.2 119.3 73 117.2 74.5 115.5C74.6 115.4 74.7 115.3 74.8 115.2L80 109.9C81.8 108.1 82.6 105.8 82.6 103.5C82.6 101.2 81.7 98.9 80 97.1C76.6 93.7 71.1 93.6 67.6 96.8C67.5 96.9 67.4 97 67.3 97.1L60.1 104.3L40.7 123.6C37.2 127.1 31.5 127.1 28 123.6C26.2 121.8 25.4 119.5 25.4 117.2C25.4 115 26.2 112.9 27.7 111.2C27.8 111.1 27.9 111 28 110.9L45.5 93.4C47.3 91.6 48.1 89.3 48.1 87C48.1 84.7 47.2 82.4 45.5 80.6C42.1 77.2 36.6 77.1 33.1 80.3C33 80.4 32.9 80.5 32.8 80.6L15.3 98.1C11.8 101.6 6.1 101.6 2.6 98.1C0.8 96.3 0 94 0 91.7C0 89.4 0.9 87.1 2.6 85.3L134.1 -46C137.6 -49.5 143.3 -49.5 146.8 -46C148.6 -44.2 149.4 -41.9 149.4 -39.6C149.4 -37.3 148.5 -35 146.8 -33.2L131.3 -17.7C131.2 -17.6 131.1 -17.5 131 -17.4C129.5 -15.7 128.7 -13.5 128.7 -11.4C128.7 -9.1 129.6 -6.8 131.3 -5C134.8 -1.5 140.5 -1.5 144 -5L159.5 -20.5C159.6 -20.6 159.7 -20.7 159.8 -20.8C163.3 -24 168.8 -23.9 172.2 -20.5C174 -18.7 174.8 -16.4 174.8 -14.1C174.8 -11.8 173.9 -9.5 172.2 -7.7L159.2 5.3C159.1 5.4 159 5.5 158.9 5.6C157.4 7.3 156.6 9.5 156.6 11.6C156.6 13.9 157.5 16.2 159.2 18C162.7 21.5 168.4 21.5 171.9 18L176.7 11.9C176.8 11.8 176.9 11.7 177 11.6C180.5 8.4 186 8.5 189.4 11.9C191.3 13.6 192.2 15.9 192.2 18.2Z" fill="#FAF6F2"/>
<path d="M67.7 85.9L60.2 93.4L67.4 86.2C67.4 86.1 67.5 86 67.7 85.9Z" fill="#F1F1F1"/>
<path d="M67.7 85.9L60.2 93.4L67.4 86.2C67.4 86.1 67.5 86 67.7 85.9Z" fill="#F1F1F1"/>
<path d="M186.1 61C186.1 63.3 185.2 65.6 183.5 67.4L124 125.9C120.5 129.4 114.8 129.4 111.3 125.9C109.5 124.1 108.7 121.8 108.7 119.5C108.7 117.2 109.6 114.9 111.3 113.1L170.8 54.6C174.3 51.1 180 51.1 183.5 54.6C185.3 56.4 186.1 58.7 186.1 61Z" fill="#FAF6F2"/>
<path d="M68.4001 1.025C68.4001 3.325 67.5001 5.625 65.8001 7.425L27.3001 44.925C23.8001 48.425 18.1001 48.425 14.6001 44.925C12.8001 43.125 12.0001 40.825 12.0001 38.525C12.0001 36.225 12.9001 33.925 14.6001 32.125L53.1001 -5.375C56.6001 -8.875 62.3001 -8.875 65.8001 -5.375C67.6001 -3.575 68.4001 -1.275 68.4001 1.025Z" fill="#FAF6F2"/>
<path d="M106.167 34.5H97.8333V26.1666H106.167M106.167 67.8333H97.8333V42.8333H106.167M102 5.33331C96.5282 5.33331 91.1101 6.41105 86.0548 8.505C80.9996 10.5989 76.4063 13.6681 72.5372 17.5372C64.7232 25.3512 60.3333 35.9493 60.3333 47C60.3333 58.0507 64.7232 68.6487 72.5372 76.4628C76.4063 80.3319 80.9996 83.401 86.0548 85.495C91.1101 87.5889 96.5282 88.6666 102 88.6666C113.051 88.6666 123.649 84.2768 131.463 76.4628C139.277 68.6487 143.667 58.0507 143.667 47C143.667 41.5282 142.589 36.1101 140.495 31.0548C138.401 25.9996 135.332 21.4063 131.463 17.5372C127.594 13.6681 123 10.5989 117.945 8.505C112.89 6.41105 107.472 5.33331 102 5.33331Z" fill="#FC8C5D"/>
</svg>
