<svg width="12" height="8" viewBox="0 0 12 8" fill="none" xmlns="http://www.w3.org/2000/svg">
<path d="M0.399903 0.988805C0.583237 0.805472 0.816568 0.713806 1.0999 0.713806C1.38324 0.713806 1.61657 0.805472 1.7999 0.988805L5.6999 4.88881L9.5999 0.988806C9.78324 0.805472 10.0166 0.713806 10.2999 0.713806C10.5832 0.713806 10.8166 0.805472 10.9999 0.988806C11.1832 1.17214 11.2749 1.40547 11.2749 1.68881C11.2749 1.97214 11.1832 2.20547 10.9999 2.38881L6.3999 6.98881C6.2999 7.08881 6.19157 7.15981 6.0749 7.20181C5.95824 7.24314 5.83324 7.26381 5.6999 7.26381C5.56657 7.26381 5.44157 7.24314 5.3249 7.20181C5.20824 7.15981 5.0999 7.08881 4.9999 6.98881L0.399903 2.38881C0.21657 2.20547 0.124902 1.97214 0.124902 1.68881C0.124902 1.40547 0.21657 1.17214 0.399903 0.988805Z" fill="#1E1307"/>
</svg>
